<?xml version="1.0" encoding="utf-8"?>
<svg version="1.1" xmlns="http://www.w3.org/2000/svg" xmlns:xlink="http://www.w3.org/1999/xlink" x="0px" y="0px"
	 viewBox="0 0 293.94 47.85" fill="#d4d4d4" xml:space="preserve">
<path d="M48.86,21.68c0.98-0.96,1.33-2.36,0.91-3.67c-0.42-1.31-1.53-2.24-2.89-2.44l-12.09-1.76c-0.51-0.07-0.96-0.4-1.19-0.86
	L28.18,2c-0.61-1.23-1.84-2-3.21-2c-1.37,0-2.6,0.76-3.21,2l-5.41,10.96c-0.23,0.47-0.68,0.79-1.19,0.86L3.07,15.57
	c-1.36,0.2-2.47,1.13-2.89,2.44c-0.42,1.31-0.08,2.71,0.91,3.67l8.75,8.53c0.37,0.36,0.54,0.89,0.46,1.4L8.22,43.65
	c-0.18,1.06,0.1,2.09,0.78,2.9c1.07,1.27,2.93,1.65,4.41,0.87l10.81-5.69c0.45-0.24,1.02-0.24,1.47,0l10.82,5.69
	c0.53,0.28,1.09,0.42,1.67,0.42c1.06,0,2.06-0.47,2.75-1.29c0.69-0.81,0.96-1.85,0.78-2.9l-2.06-12.04
	c-0.09-0.51,0.08-1.04,0.46-1.4L48.86,21.68z"/>
<path d="M109.86,21.68c0.98-0.96,1.33-2.36,0.91-3.67c-0.42-1.31-1.53-2.24-2.89-2.44l-12.09-1.76c-0.51-0.07-0.96-0.4-1.19-0.86
	L89.18,2c-0.61-1.23-1.84-2-3.21-2c-1.37,0-2.6,0.76-3.21,2l-5.41,10.96c-0.23,0.47-0.68,0.79-1.19,0.86l-12.09,1.76
	c-1.36,0.2-2.47,1.13-2.89,2.44c-0.42,1.31-0.08,2.71,0.91,3.67l8.75,8.53c0.37,0.36,0.54,0.89,0.46,1.4l-2.06,12.04
	c-0.18,1.06,0.1,2.09,0.78,2.9c1.07,1.27,2.93,1.65,4.42,0.87l10.81-5.69c0.45-0.24,1.02-0.24,1.47,0l10.81,5.69
	c0.53,0.28,1.09,0.42,1.67,0.42c1.06,0,2.06-0.47,2.75-1.29c0.69-0.81,0.96-1.85,0.78-2.9l-2.06-12.04
	c-0.09-0.51,0.08-1.04,0.46-1.4L109.86,21.68z"/>
<path d="M170.86,21.68c0.98-0.96,1.33-2.36,0.91-3.67c-0.43-1.31-1.53-2.24-2.89-2.44l-12.09-1.76c-0.51-0.07-0.96-0.4-1.19-0.86
	L150.18,2c-0.61-1.23-1.84-2-3.21-2c-1.37,0-2.6,0.76-3.21,2l-5.41,10.96c-0.23,0.47-0.68,0.79-1.19,0.86l-12.09,1.76
	c-1.36,0.2-2.47,1.13-2.89,2.44c-0.42,1.31-0.08,2.71,0.91,3.67l8.75,8.53c0.37,0.36,0.54,0.89,0.46,1.4l-2.06,12.04
	c-0.18,1.06,0.1,2.09,0.78,2.9c1.07,1.27,2.93,1.65,4.41,0.87l10.81-5.69c0.45-0.24,1.02-0.24,1.47,0l10.82,5.69
	c0.53,0.28,1.09,0.42,1.67,0.42c1.06,0,2.06-0.47,2.75-1.29c0.69-0.81,0.96-1.85,0.78-2.9l-2.07-12.04
	c-0.09-0.51,0.08-1.04,0.46-1.4L170.86,21.68z"/>
<path d="M231.86,21.68c0.98-0.96,1.33-2.36,0.91-3.67c-0.43-1.31-1.53-2.24-2.89-2.44l-12.09-1.76c-0.51-0.07-0.96-0.4-1.19-0.86
	L211.18,2c-0.61-1.23-1.84-2-3.21-2c-1.37,0-2.6,0.76-3.21,2l-5.41,10.96c-0.23,0.47-0.68,0.79-1.19,0.86l-12.09,1.76
	c-1.36,0.2-2.47,1.13-2.89,2.44c-0.42,1.31-0.08,2.71,0.91,3.67l8.75,8.53c0.37,0.36,0.54,0.89,0.46,1.4l-2.06,12.04
	c-0.18,1.06,0.1,2.09,0.78,2.9c1.07,1.27,2.93,1.65,4.41,0.87l10.81-5.69c0.45-0.24,1.02-0.24,1.47,0l10.82,5.69
	c0.53,0.28,1.09,0.42,1.67,0.42c1.06,0,2.06-0.47,2.75-1.29c0.69-0.81,0.96-1.85,0.78-2.9l-2.07-12.04
	c-0.09-0.51,0.08-1.04,0.46-1.4L231.86,21.68z"/>
<path d="M292.86,21.68c0.98-0.96,1.33-2.36,0.91-3.67c-0.42-1.31-1.53-2.24-2.89-2.44l-12.09-1.76c-0.51-0.07-0.96-0.4-1.19-0.86
	L272.18,2c-0.61-1.23-1.84-2-3.21-2c-1.37,0-2.6,0.76-3.21,2l-5.41,10.96c-0.23,0.47-0.68,0.79-1.19,0.86l-12.09,1.76
	c-1.36,0.2-2.47,1.13-2.89,2.44c-0.42,1.31-0.08,2.71,0.91,3.67l8.75,8.53c0.37,0.36,0.54,0.89,0.46,1.4l-2.06,12.04
	c-0.18,1.06,0.1,2.09,0.78,2.9c1.07,1.27,2.93,1.65,4.42,0.87l10.81-5.69c0.45-0.24,1.02-0.24,1.47,0l10.82,5.69
	c0.53,0.28,1.09,0.42,1.67,0.42c1.06,0,2.06-0.47,2.75-1.29c0.69-0.81,0.96-1.85,0.78-2.9l-2.07-12.04
	c-0.09-0.51,0.08-1.04,0.46-1.4L292.86,21.68z"/>
</svg>
